<svg width="40" height="40" viewBox="0 0 40 40" fill="none" xmlns="http://www.w3.org/2000/svg">
<path opacity="0.3" d="M30.4467 31.5752L26.9807 28.1092V22.9504H28.5928V27.4482L31.5752 30.4306L30.4467 31.5752ZM27.7867 16.502C28.3348 16.502 28.8668 16.5504 29.3988 16.631V8.44149H26.1746V13.2778H13.2778V8.44149H10.0536V32.623H17.5982C16.7803 30.9038 16.411 29.0054 16.5248 27.1049C16.6386 25.2043 17.2317 23.3636 18.2488 21.7541C19.266 20.1447 20.6741 18.819 22.3419 17.9006C24.0097 16.9823 25.8828 16.5011 27.7867 16.502ZM19.7262 8.44149C18.8396 8.44149 18.1141 7.71605 18.1141 6.82939C18.1141 5.94273 18.8396 5.21729 19.7262 5.21729C20.6129 5.21729 21.3383 5.94273 21.3383 6.82939C21.3383 7.71605 20.6129 8.44149 19.7262 8.44149Z" fill="#AA4646"/>
<path d="M27.7867 19.7263C23.3373 19.7263 19.7262 23.3374 19.7262 27.7868C19.7262 32.2362 23.3373 35.8473 27.7867 35.8473C32.2361 35.8473 35.8472 32.2362 35.8472 27.7868C35.8472 23.3374 32.2361 19.7263 27.7867 19.7263ZM30.4467 31.5753L26.9806 28.1092V22.9505H28.5927V27.4483L31.5751 30.4307L30.4467 31.5753ZM29.3988 5.21737H24.2723C23.5952 3.34733 21.8219 1.99316 19.7262 1.99316C17.6304 1.99316 15.8571 3.34733 15.18 5.21737H10.0536C8.28024 5.21737 6.82935 6.66826 6.82935 8.44158V32.6231C6.82935 34.3964 8.28024 35.8473 10.0536 35.8473H19.9035C18.9485 34.9226 18.1725 33.8296 17.6143 32.6231H10.0536V8.44158H13.2778V13.2779H26.1746V8.44158H29.3988V16.6311C30.5434 16.7923 31.6235 17.1308 32.623 17.5983V8.44158C32.623 6.66826 31.1721 5.21737 29.3988 5.21737ZM19.7262 8.44158C18.8395 8.44158 18.1141 7.71613 18.1141 6.82947C18.1141 5.94282 18.8395 5.21737 19.7262 5.21737C20.6128 5.21737 21.3383 5.94282 21.3383 6.82947C21.3383 7.71613 20.6128 8.44158 19.7262 8.44158Z" fill="#AA4646"/>
</svg>
