<svg width="12" height="12" viewBox="0 0 12 12" fill="none" xmlns="http://www.w3.org/2000/svg">
<path d="M6 1.75C6.19891 1.75 6.38968 1.82902 6.53033 1.96967C6.67098 2.11032 6.75 2.30109 6.75 2.5V5.25H9.5C9.69891 5.25 9.88968 5.32902 10.0303 5.46967C10.171 5.61032 10.25 5.80109 10.25 6C10.25 6.19891 10.171 6.38968 10.0303 6.53033C9.88968 6.67098 9.69891 6.75 9.5 6.75H6.75V9.5C6.75 9.69891 6.67098 9.88968 6.53033 10.0303C6.38968 10.171 6.19891 10.25 6 10.25C5.80109 10.25 5.61032 10.171 5.46967 10.0303C5.32902 9.88968 5.25 9.69891 5.25 9.5V6.75H2.5C2.30109 6.75 2.11032 6.67098 1.96967 6.53033C1.82902 6.38968 1.75 6.19891 1.75 6C1.75 5.80109 1.82902 5.61032 1.96967 5.46967C2.11032 5.32902 2.30109 5.25 2.5 5.25H5.25V2.5C5.25 2.30109 5.32902 2.11032 5.46967 1.96967C5.61032 1.82902 5.80109 1.75 6 1.75Z" fill="white"/>
</svg>
