<svg width="18" height="18" viewBox="0 0 18 18" fill="none" xmlns="http://www.w3.org/2000/svg">
<path fill-rule="evenodd" clip-rule="evenodd" d="M10.1996 0.986258C10.1996 0.730514 10.098 0.485244 9.9172 0.304405C9.73636 0.123567 9.49109 0.0219727 9.23534 0.0219727C8.9796 0.0219727 8.73433 0.123567 8.55349 0.304405C8.37265 0.485244 8.27106 0.730514 8.27106 0.986258V1.95569C8.27106 2.21143 8.37265 2.4567 8.55349 2.63754C8.73433 2.81838 8.9796 2.91997 9.23534 2.91997C9.49109 2.91997 9.73636 2.81838 9.9172 2.63754C10.098 2.4567 10.1996 2.21143 10.1996 1.95569V0.986258ZM8.47934 3.76469C8.70084 3.63708 8.96394 3.60264 9.21082 3.66894C9.4577 3.73524 9.66815 3.89685 9.79591 4.11826L14.7562 12.7081C14.8821 12.9295 14.9152 13.1916 14.8485 13.4374C14.7818 13.6831 14.6206 13.8925 14.4001 14.0198C14.1796 14.1471 13.9176 14.1821 13.6715 14.117C13.4253 14.0519 13.2148 13.8921 13.0861 13.6724L13.0153 13.549L9.03992 14.4721C9.21762 15.1254 9.15185 15.8209 8.85485 16.4293C8.55785 17.0377 8.04987 17.5174 7.42551 17.7791C6.80114 18.0408 6.10294 18.0667 5.46092 17.8519C4.8189 17.6371 4.27682 17.1963 3.93563 16.6115L3.93306 16.6077L3.44963 15.7707L1.5802 16.204C1.44598 16.2351 1.30531 16.2223 1.17892 16.1675C1.05253 16.1126 0.947109 16.0186 0.878201 15.8993L0.095201 14.5428C0.0264737 14.4235 -0.00212577 14.2853 0.0136136 14.1485C0.0293531 14.0117 0.0885996 13.8836 0.18263 13.783L8.19906 5.20726L8.12577 5.08254C8.06239 4.97281 8.02125 4.85167 8.00471 4.72603C7.98818 4.60039 7.99657 4.47272 8.02941 4.35033C8.06224 4.22794 8.11888 4.11322 8.19609 4.01273C8.27329 3.91224 8.36954 3.82795 8.47934 3.76469ZM5.41292 15.3143L7.15763 14.9093C7.23367 15.1121 7.23061 15.3361 7.14906 15.5368C7.06751 15.7375 6.91344 15.9002 6.71746 15.9925C6.52148 16.0848 6.29794 16.1001 6.09127 16.0351C5.88459 15.9702 5.7099 15.8299 5.60191 15.6421L5.41292 15.3143ZM17.9872 8.77254C17.9872 9.02829 17.8856 9.27356 17.7048 9.4544C17.5239 9.63524 17.2787 9.73683 17.0229 9.73683H16.0535C15.7977 9.73683 15.5525 9.63524 15.3716 9.4544C15.1908 9.27356 15.0892 9.02829 15.0892 8.77254C15.0892 8.5168 15.1908 8.27153 15.3716 8.09069C15.5525 7.90985 15.7977 7.80826 16.0535 7.80826H17.0216C17.2774 7.80826 17.5226 7.90985 17.7035 8.09069C17.8843 8.27153 17.9872 8.5168 17.9872 8.77254ZM2.41977 9.73683C2.67552 9.73683 2.92079 9.63524 3.10163 9.4544C3.28246 9.27356 3.38406 9.02829 3.38406 8.77254C3.38406 8.5168 3.28246 8.27153 3.10163 8.09069C2.92079 7.90985 2.67552 7.80826 2.41977 7.80826H1.45034C1.1946 7.80826 0.94933 7.90985 0.768491 8.09069C0.587652 8.27153 0.486058 8.5168 0.486058 8.77254C0.486058 9.02829 0.587652 9.27356 0.768491 9.4544C0.94933 9.63524 1.1946 9.73683 1.45034 9.73683H2.41977ZM5.2252 4.76369C5.0444 4.94427 4.79931 5.0457 4.54377 5.0457C4.28824 5.0457 4.04315 4.94427 3.86234 4.76369L3.0472 3.94854C2.95246 3.86026 2.87647 3.75381 2.82377 3.63552C2.77106 3.51724 2.74272 3.38955 2.74044 3.26007C2.73816 3.1306 2.76197 3.00199 2.81047 2.88192C2.85897 2.76185 2.93116 2.65278 3.02272 2.56121C3.11429 2.46964 3.22336 2.39746 3.34343 2.34896C3.4635 2.30046 3.59211 2.27664 3.72159 2.27893C3.85106 2.28121 3.97875 2.30955 4.09704 2.36225C4.21532 2.41496 4.32178 2.49095 4.41006 2.58569L5.22649 3.39954C5.31609 3.48909 5.38718 3.59542 5.43568 3.71246C5.48418 3.82949 5.50914 3.95493 5.50914 4.08162C5.50914 4.2083 5.48418 4.33374 5.43568 4.45077C5.38718 4.56781 5.31481 4.67414 5.2252 4.76369ZM15.4235 3.94854C15.5938 3.76575 15.6865 3.52397 15.6821 3.27416C15.6777 3.02434 15.5765 2.78599 15.3999 2.60932C15.2232 2.43264 14.9848 2.33144 14.735 2.32703C14.4852 2.32263 14.2434 2.41536 14.0606 2.58569L13.2352 3.40854C13.0543 3.58944 12.9527 3.83479 12.9527 4.09062C12.9527 4.21729 12.9776 4.34272 13.0261 4.45975C13.0746 4.57678 13.1456 4.68312 13.2352 4.77269C13.3248 4.86226 13.4311 4.93331 13.5481 4.98178C13.6652 5.03026 13.7906 5.05521 13.9173 5.05521C14.1731 5.05521 14.4184 4.95358 14.5993 4.77269L15.4235 3.94854Z" fill="#465746"/>
</svg>
