<svg version="1.1" id="Layer_1" xmlns="http://www.w3.org/2000/svg" xmlns:xlink="http://www.w3.org/1999/xlink" x="0px" y="0px"
	 width="100%" viewBox="0 0 512 512" enable-background="new 0 0 512 512" xml:space="preserve">
<path fill="#000000" opacity="1.000000" stroke="none" 
	d="
M301.000000,513.000000 
	C200.691025,513.000000 100.882042,513.000000 1.036533,513.000000 
	C1.036533,342.399323 1.036533,171.798660 1.036533,1.098988 
	C171.558990,1.098988 342.118042,1.098988 512.838562,1.098988 
	C512.838562,171.666550 512.838562,342.333252 512.838562,513.000000 
	C442.465302,513.000000 371.982635,513.000000 301.000000,513.000000 
M328.279114,55.091530 
	C327.635376,54.961842 326.964050,54.909454 326.351868,54.691261 
	C305.355164,47.207825 283.597168,43.853107 261.424469,43.085205 
	C255.010895,42.863087 248.511826,43.271339 242.139664,44.081070 
	C229.661713,45.666683 217.117508,47.135849 204.832947,49.746040 
	C185.242874,53.908478 167.127914,62.062233 149.767883,72.008018 
	C127.518349,84.755058 108.210205,101.053566 91.962494,120.746513 
	C78.074753,137.579056 67.054993,156.293976 58.761810,176.577942 
	C48.804672,200.931702 43.408287,226.321579 43.256001,252.503708 
	C43.169453,267.383820 44.961590,282.382629 47.147602,297.144379 
	C50.975849,322.995850 61.039654,346.822266 74.629295,368.896149 
	C85.849205,387.120819 99.402245,403.647369 115.949959,417.624268 
	C127.750679,427.591675 140.088486,436.617218 153.531754,444.198059 
	C182.859711,460.736511 214.605011,469.044159 247.968811,470.773132 
	C261.097198,471.453430 274.459717,470.443268 287.527618,468.751099 
	C304.011322,466.616608 320.083893,462.224731 335.594391,456.000397 
	C361.114899,445.759094 384.049988,431.363953 403.886078,412.388702 
	C412.433655,404.212067 420.198334,395.101685 427.529510,385.793945 
	C440.854431,368.876495 450.831146,350.000702 458.098267,329.709320 
	C464.859161,310.831329 468.601929,291.446045 470.290100,271.397430 
	C471.566559,256.237885 471.145172,241.195312 468.630737,226.523849 
	C465.818909,210.117401 461.424561,193.759277 455.682159,178.128372 
	C446.218048,152.366791 431.198578,129.637436 412.144714,109.865593 
	C404.046173,101.461899 395.033447,93.852325 385.902435,86.549187 
	C368.800690,72.870857 349.408142,63.177193 328.279114,55.091530 
z"/>
<path fill="#CA8A04" opacity="1.000000" stroke="none" 
	d="
M328.628876,55.288933 
	C349.408142,63.177193 368.800690,72.870857 385.902435,86.549187 
	C395.033447,93.852325 404.046173,101.461899 412.144714,109.865593 
	C431.198578,129.637436 446.218048,152.366791 455.682159,178.128372 
	C461.424561,193.759277 465.818909,210.117401 468.630737,226.523849 
	C471.145172,241.195312 471.566559,256.237885 470.290100,271.397430 
	C468.601929,291.446045 464.859161,310.831329 458.098267,329.709320 
	C450.831146,350.000702 440.854431,368.876495 427.529510,385.793945 
	C420.198334,395.101685 412.433655,404.212067 403.886078,412.388702 
	C384.049988,431.363953 361.114899,445.759094 335.594391,456.000397 
	C320.083893,462.224731 304.011322,466.616608 287.527618,468.751099 
	C274.459717,470.443268 261.097198,471.453430 247.968811,470.773132 
	C214.605011,469.044159 182.859711,460.736511 153.531754,444.198059 
	C140.088486,436.617218 127.750679,427.591675 115.949959,417.624268 
	C99.402245,403.647369 85.849205,387.120819 74.629295,368.896149 
	C61.039654,346.822266 50.975849,322.995850 47.147602,297.144379 
	C44.961590,282.382629 43.169453,267.383820 43.256001,252.503708 
	C43.408287,226.321579 48.804672,200.931702 58.761810,176.577942 
	C67.054993,156.293976 78.074753,137.579056 91.962494,120.746513 
	C108.210205,101.053566 127.518349,84.755058 149.767883,72.008018 
	C167.127914,62.062233 185.242874,53.908478 204.832947,49.746040 
	C217.117508,47.135849 229.661713,45.666683 242.139664,44.081070 
	C248.511826,43.271339 255.010895,42.863087 261.424469,43.085205 
	C283.597168,43.853107 305.355164,47.207825 326.351868,54.691261 
	C326.964050,54.909454 327.635376,54.961842 328.628876,55.288933 
M406.926697,176.651474 
	C398.089020,161.024490 387.883118,146.309128 374.519531,134.292099 
	C365.679260,126.342567 355.917542,119.306824 346.042389,112.641197 
	C322.885925,97.010818 296.736938,89.536400 269.235901,87.185638 
	C252.630386,85.766205 235.951126,87.126343 219.608109,91.012199 
	C187.489838,98.648926 159.388062,113.803276 136.390121,137.449036 
	C127.439255,146.652039 119.832596,157.336975 112.633141,168.033096 
	C96.862808,191.462830 89.290993,217.905518 87.156792,245.798248 
	C85.922951,261.923889 87.320862,278.038391 90.940208,293.943542 
	C97.812767,324.144867 111.966347,350.489960 132.822922,373.161713 
	C143.072266,384.303070 155.063766,393.435516 167.943481,401.597931 
	C191.554321,416.561127 217.386765,424.516174 244.897079,426.806549 
	C261.334747,428.175049 277.823273,426.814240 294.062256,423.053680 
	C325.965057,415.665710 353.757507,400.636108 376.683563,377.445648 
	C386.034271,367.987122 393.909485,356.886414 401.417236,345.827606 
	C417.302887,322.428314 424.775269,295.904572 426.749512,268.013428 
	C427.581543,256.259583 426.131622,244.267105 424.928772,232.463623 
	C422.934235,212.891388 416.339508,194.675430 406.926697,176.651474 
z"/>
<path fill="#000000" opacity="1.000000" stroke="none" 
	d="
M407.003906,177.019714 
	C416.339508,194.675430 422.934235,212.891388 424.928772,232.463623 
	C426.131622,244.267105 427.581543,256.259583 426.749512,268.013428 
	C424.775269,295.904572 417.302887,322.428314 401.417236,345.827606 
	C393.909485,356.886414 386.034271,367.987122 376.683563,377.445648 
	C353.757507,400.636108 325.965057,415.665710 294.062256,423.053680 
	C277.823273,426.814240 261.334747,428.175049 244.897079,426.806549 
	C217.386765,424.516174 191.554321,416.561127 167.943481,401.597931 
	C155.063766,393.435516 143.072266,384.303070 132.822922,373.161713 
	C111.966347,350.489960 97.812767,324.144867 90.940208,293.943542 
	C87.320862,278.038391 85.922951,261.923889 87.156792,245.798248 
	C89.290993,217.905518 96.862808,191.462830 112.633141,168.033096 
	C119.832596,157.336975 127.439255,146.652039 136.390121,137.449036 
	C159.388062,113.803276 187.489838,98.648926 219.608109,91.012199 
	C235.951126,87.126343 252.630386,85.766205 269.235901,87.185638 
	C296.736938,89.536400 322.885925,97.010818 346.042389,112.641197 
	C355.917542,119.306824 365.679260,126.342567 374.519531,134.292099 
	C387.883118,146.309128 398.089020,161.024490 407.003906,177.019714 
M246.156052,226.380615 
	C238.909943,230.685638 235.167236,237.360992 235.101151,245.478455 
	C234.851898,276.098846 234.920670,306.722778 235.039917,337.344727 
	C235.088181,349.738373 245.668793,359.639465 258.022858,358.956329 
	C269.412170,358.326538 278.950470,349.125244 278.978119,336.736877 
	C279.044556,306.946747 278.973785,277.156342 279.009247,247.366119 
	C279.030701,229.365540 263.487732,218.990997 246.156052,226.380615 
M277.671875,169.228745 
	C272.436523,157.416397 264.052185,154.933334 253.930573,156.004837 
	C243.413071,157.118210 238.077805,162.140350 235.250549,173.580627 
	C233.924179,178.947693 236.801361,190.240189 244.649750,195.259125 
	C255.851456,202.422440 271.184845,198.566238 276.721588,186.668289 
	C279.241119,181.254044 279.713257,175.717850 277.671875,169.228745 
z"/>
<path fill="#CA8A04" opacity="1.000000" stroke="none" 
	d="
M246.508301,226.209579 
	C263.487732,218.990997 279.030701,229.365540 279.009247,247.366119 
	C278.973785,277.156342 279.044556,306.946747 278.978119,336.736877 
	C278.950470,349.125244 269.412170,358.326538 258.022858,358.956329 
	C245.668793,359.639465 235.088181,349.738373 235.039917,337.344727 
	C234.920670,306.722778 234.851898,276.098846 235.101151,245.478455 
	C235.167236,237.360992 238.909943,230.685638 246.508301,226.209579 
z"/>
<path fill="#CA8A04" opacity="1.000000" stroke="none" 
	d="
M277.803253,169.616486 
	C279.713257,175.717850 279.241119,181.254044 276.721588,186.668289 
	C271.184845,198.566238 255.851456,202.422440 244.649750,195.259125 
	C236.801361,190.240189 233.924179,178.947693 235.250549,173.580627 
	C238.077805,162.140350 243.413071,157.118210 253.930573,156.004837 
	C264.052185,154.933334 272.436523,157.416397 277.803253,169.616486 
z"/>
</svg>