<svg width="22" height="26" viewBox="0 0 22 26" fill="none" xmlns="http://www.w3.org/2000/svg">
<path d="M7.87989 3.47225e-05C7.73475 0.0216176 7.59614 0.0748772 7.47389 0.156035C7.47389 0.156035 6.20889 0.952035 4.84889 1.81303C3.48889 2.67303 1.97589 3.62103 1.62989 3.81303L1.56689 3.84303C0.310889 4.61803 0.0498889 5.88403 0.00488889 6.59403C0.00188889 6.62703 0.00488889 6.65403 0.00488889 6.68903C-0.00611111 6.95503 0.00488889 7.12603 0.00488889 7.12603V20.189C0.00488889 22.087 2.21789 23 4.31789 23C5.01789 23 5.71789 22.887 6.31789 22.687C6.71789 22.487 7.00489 22.087 7.00489 21.687V11.187C7.00489 8.88703 7.50489 7.80703 9.00489 6.90703C9.40489 6.70703 13.5989 3.81203 13.5989 3.81203C13.7989 3.61203 14.0049 3.20603 14.0049 2.90603V2.81203C14.0049 2.41203 13.8049 2.10603 13.5049 1.90603C13.2049 1.70603 12.8049 1.70603 12.5049 1.90603C12.4049 2.00603 6.30489 6.11304 5.00489 6.81304C3.70489 7.61304 2.49189 7.80603 2.19189 7.40603C2.09889 7.31303 2.01789 7.02803 2.00489 6.75003V6.68703C2.00589 6.41503 2.07589 5.90303 2.62989 5.56203C3.19189 5.24903 4.58689 4.35803 5.94289 3.50003C6.51589 3.13703 6.58689 3.09803 7.03589 2.81203C7.09499 3.05633 7.24393 3.26941 7.45304 3.40885C7.66215 3.5483 7.9161 3.60389 8.16435 3.56455C8.41259 3.52522 8.63692 3.39384 8.79268 3.19658C8.94844 2.99932 9.0242 2.75063 9.00489 2.50003V1.00003C9.00601 0.8575 8.97664 0.716372 8.91876 0.586114C8.86088 0.455856 8.77582 0.339476 8.66928 0.244778C8.56275 0.15008 8.4372 0.0792516 8.30105 0.0370409C8.16491 -0.00516975 8.02131 -0.0177871 7.87989 3.47225e-05ZM15.8799 3.50003C15.7209 3.52648 15.5706 3.59098 15.4419 3.68803C15.4419 3.68803 10.4079 7.07503 9.53589 7.65603L9.50489 7.68804C8.78089 8.23103 8.35189 8.87703 8.16089 9.46803C8.05447 9.80158 8.00181 10.1499 8.00489 10.5V10.813C8.00345 10.844 8.00345 10.8751 8.00489 10.906V23C8.00489 24.9 10.1929 26 12.1929 26C13.0929 26 13.9049 25.806 14.5049 25.406C15.7049 24.706 21.5049 20.188 21.5049 20.188C21.8049 19.988 22.0049 19.706 22.0049 19.406V6.40603C22.0049 5.90603 21.8109 5.60603 21.4109 5.40603C21.1109 5.20603 20.6179 5.30003 20.3179 5.50003C18.7179 6.70003 14.4109 10.088 13.4109 10.688C12.0109 11.488 10.6919 11.688 10.1919 11.188C9.99189 10.988 10.0049 10.8 10.0049 10.5C10.0102 10.3267 10.0312 10.1807 10.0679 10.062C10.1239 9.88803 10.2379 9.67403 10.6609 9.34403C10.6809 9.32803 10.6709 9.32903 10.6919 9.31303C11.4149 8.83003 13.6259 7.32303 15.0679 6.34303C15.1496 6.5622 15.3055 6.7458 15.5086 6.86189C15.7116 6.97798 15.949 7.01922 16.1793 6.97844C16.4096 6.93766 16.6183 6.81743 16.7692 6.63867C16.92 6.45991 17.0034 6.23393 17.0049 6.00003V4.50003C17.006 4.3575 16.9766 4.21637 16.9188 4.08611C16.8609 3.95586 16.7758 3.83948 16.6693 3.74478C16.5627 3.65008 16.4372 3.57925 16.3011 3.53704C16.1649 3.49483 16.0213 3.48221 15.8799 3.50003ZM20.0049 10.813V12.813L15.0049 16.687V14.687L20.0049 10.813Z" fill="white"/>
</svg>
