<svg width="48" height="48" viewBox="0 0 48 48" fill="none" xmlns="http://www.w3.org/2000/svg">
<path d="M10 44C8.9 44 7.95867 43.6087 7.176 42.826C6.39333 42.0433 6.00133 41.1013 6 40V12C6 10.9 6.392 9.95867 7.176 9.17601C7.96 8.39334 8.90133 8.00134 10 8.00001H12V6.00001C12 5.43334 12.192 4.95867 12.576 4.57601C12.96 4.19334 13.4347 4.00134 14 4.00001C14.5653 3.99867 15.0407 4.19067 15.426 4.57601C15.8113 4.96134 16.0027 5.43601 16 6.00001V8.00001H32V6.00001C32 5.43334 32.192 4.95867 32.576 4.57601C32.96 4.19334 33.4347 4.00134 34 4.00001C34.5653 3.99867 35.0407 4.19067 35.426 4.57601C35.8113 4.96134 36.0027 5.43601 36 6.00001V8.00001H38C39.1 8.00001 40.042 8.39201 40.826 9.17601C41.61 9.96001 42.0013 10.9013 42 12V24.75C42 25.3167 41.808 25.792 41.424 26.176C41.04 26.56 40.5653 26.7513 40 26.75C39.4347 26.7487 38.96 26.5567 38.576 26.174C38.192 25.7913 38 25.3167 38 24.75V20H10V40H22.45C23.0167 40 23.4833 40.192 23.85 40.576C24.2167 40.96 24.4 41.4347 24.4 42C24.4 42.5653 24.2087 43.0407 23.826 43.426C23.4433 43.8113 22.968 44.0027 22.4 44H10ZM33.05 39.35L40.15 32.25C40.55 31.85 41.0167 31.65 41.55 31.65C42.0833 31.65 42.55 31.85 42.95 32.25C43.35 32.65 43.55 33.1253 43.55 33.676C43.55 34.2267 43.35 34.7013 42.95 35.1L34.5 43.6C34.1 44 33.6253 44.2 33.076 44.2C32.5267 44.2 32.0513 44 31.65 43.6L27.4 39.35C27 38.95 26.8 38.4753 26.8 37.926C26.8 37.3767 27 36.9013 27.4 36.5C27.8 36.0987 28.2753 35.8987 28.826 35.9C29.3767 35.9013 29.8513 36.1013 30.25 36.5L33.05 39.35Z" fill="#465746"/>
</svg>
