<svg width="48" height="48" viewBox="0 0 48 48" fill="none" xmlns="http://www.w3.org/2000/svg">
<path d="M26.5 6C24.093 5.93126 21.6967 6.346 19.4529 7.21969C17.209 8.09337 15.1632 9.40825 13.4364 11.0865C11.7096 12.7648 10.3371 14.7723 9.39984 16.9904C8.46263 19.2085 7.97982 21.592 7.98 24H4.4C3.5 24 3.06 25.08 3.7 25.7L9.28 31.3C9.68 31.7 10.3 31.7 10.7 31.3L16.28 25.7C16.92 25.08 16.46 24 15.58 24H11.98C11.98 16.2 18.34 9.9 26.18 10C33.62 10.1 39.88 16.36 39.98 23.8C40.08 31.62 33.78 38 25.98 38C22.76 38 19.78 36.9 17.42 35.04C17.0369 34.7382 16.5563 34.5878 16.0695 34.6173C15.5828 34.6468 15.1238 34.8542 14.78 35.2C13.94 36.06 14 37.46 14.94 38.2C18.0904 40.6677 21.9782 42.0059 25.98 42C36.08 42 44.26 33.66 43.98 23.48C43.72 14.1 35.88 6.26 26.5 6ZM25.48 16C24.66 16 23.98 16.68 23.98 17.5V24.86C23.98 25.56 24.36 26.22 24.96 26.58L31.2 30.28C31.92 30.7 32.84 30.46 33.26 29.76C33.68 29.04 33.44 28.12 32.74 27.7L26.98 24.28V17.48C26.98 16.68 26.32 16 25.48 16Z" fill="#465746"/>
</svg>
