<svg width="19" height="20" viewBox="0 0 19 20" fill="none" xmlns="http://www.w3.org/2000/svg">
<g clip-path="url(#clip0_1331_6142)">
<path d="M2 0C1.73478 0 1.48043 0.105357 1.29289 0.292893C1.10536 0.48043 1 0.734784 1 1V3H3V5H0V7H3V9H0V11H3V13H0V15H3V17H1V19C1 19.2652 1.10536 19.5196 1.29289 19.7071C1.48043 19.8946 1.73478 20 2 20H18C18.2652 20 18.5196 19.8946 18.7071 19.7071C18.8946 19.5196 19 19.2652 19 19V1C19 0.734784 18.8946 0.48043 18.7071 0.292893C18.5196 0.105357 18.2652 0 18 0H2ZM7 14C7 13.2044 7.31607 12.4413 7.87868 11.8787C8.44129 11.3161 9.20435 11 10 11C10.7956 11 11.5587 11.3161 12.1213 11.8787C12.6839 12.4413 13 13.2044 13 14H7ZM10 10C9.46957 10 8.96086 9.78929 8.58579 9.41421C8.21071 9.03914 8 8.53043 8 8C8 7.46957 8.21071 6.96086 8.58579 6.58579C8.96086 6.21071 9.46957 6 10 6C10.5304 6 11.0391 6.21071 11.4142 6.58579C11.7893 6.96086 12 7.46957 12 8C12 8.53043 11.7893 9.03914 11.4142 9.41421C11.0391 9.78929 10.5304 10 10 10Z" fill="white"/>
</g>
<defs>
<clipPath id="clip0_1331_6142">
<rect width="19" height="20" fill="white"/>
</clipPath>
</defs>
</svg>
