<svg width="16" height="20" viewBox="0 0 16 20" fill="none" xmlns="http://www.w3.org/2000/svg">
<path d="M6.75 17C7.38333 17 7.91667 16.7833 8.35 16.35C8.78333 15.9167 9 15.3833 9 14.75V11H12V9H8V12.875C7.81667 12.7417 7.621 12.6457 7.413 12.587C7.205 12.5283 6.984 12.4993 6.75 12.5C6.11667 12.5 5.58333 12.7167 5.15 13.15C4.71667 13.5833 4.5 14.1167 4.5 14.75C4.5 15.3833 4.71667 15.9167 5.15 16.35C5.58333 16.7833 6.11667 17 6.75 17ZM2 20C1.45 20 0.979333 19.8043 0.588 19.413C0.196666 19.0217 0.000666667 18.5507 0 18V2C0 1.45 0.196 0.979333 0.588 0.588C0.98 0.196667 1.45067 0.000666667 2 0H10L16 6V18C16 18.55 15.8043 19.021 15.413 19.413C15.0217 19.805 14.5507 20.0007 14 20H2ZM9 7H14L9 2V7Z" fill="white"/>
</svg>
