<svg width="25" height="25" viewBox="0 0 25 25" fill="none" xmlns="http://www.w3.org/2000/svg">
<g clip-path="url(#clip0_491_4839)">
<path fill-rule="evenodd" clip-rule="evenodd" d="M2.72278 5.65208C2.84105 5.36654 3.04135 5.12248 3.29834 4.95079C3.55533 4.77909 3.85746 4.68746 4.16653 4.6875H14.5832C16.6552 4.6875 18.6423 5.5106 20.1075 6.97573C21.5726 8.44086 22.3957 10.428 22.3957 12.5C22.3957 14.572 21.5726 16.5591 20.1075 18.0243C18.6423 19.4894 16.6552 20.3125 14.5832 20.3125H5.2082C4.7938 20.3125 4.39637 20.1479 4.10334 19.8549C3.81032 19.5618 3.6457 19.1644 3.6457 18.75C3.6457 18.3356 3.81032 17.9382 4.10334 17.6451C4.39637 17.3521 4.7938 17.1875 5.2082 17.1875H14.5832C15.8264 17.1875 17.0187 16.6936 17.8978 15.8146C18.7768 14.9355 19.2707 13.7432 19.2707 12.5C19.2707 11.2568 18.7768 10.0645 17.8978 9.18544C17.0187 8.30636 15.8264 7.8125 14.5832 7.8125H7.93841L8.91757 8.79167C9.20206 9.08649 9.35937 9.48126 9.35562 9.89094C9.35186 10.3006 9.18735 10.6924 8.89751 10.982C8.60768 11.2716 8.2157 11.4357 7.80602 11.4391C7.39633 11.4424 7.00171 11.2848 6.70716 11L3.06132 7.35417C2.84298 7.13569 2.69428 6.8574 2.63402 6.55445C2.57377 6.2515 2.60465 5.93749 2.72278 5.65208Z" fill="#DBDBDB"/>
</g>
<defs>
<clipPath id="clip0_491_4839">
<rect width="25" height="25" fill="white"/>
</clipPath>
</defs>
</svg>
