<svg width="18" height="18" viewBox="0 0 18 18" fill="none" xmlns="http://www.w3.org/2000/svg">
<g clip-path="url(#clip0_1369_6136)">
<path d="M17 3.5V14.5C17 14.7652 16.8946 15.0196 16.7071 15.2071C16.5196 15.3946 16.2652 15.5 16 15.5H2C1.73478 15.5 1.48043 15.3946 1.29289 15.2071C1.10536 15.0196 1 14.7652 1 14.5V3.5C1 3.23478 1.10536 2.98043 1.29289 2.79289C1.48043 2.60536 1.73478 2.5 2 2.5H16C16.2652 2.5 16.5196 2.60536 16.7071 2.79289C16.8946 2.98043 17 3.23478 17 3.5ZM3.5 13H6.5V5H3.5V13ZM7.5 13H10.5V9.5H7.5V13ZM11.5 13H14.5V8H11.5V13Z" fill="white"/>
</g>
<defs>
<clipPath id="clip0_1369_6136">
<rect width="18" height="18" fill="white"/>
</clipPath>
</defs>
</svg>
