<svg width="16" height="20" viewBox="0 0 16 20" fill="none" xmlns="http://www.w3.org/2000/svg">
<path d="M6.50146 6.75C6.50146 6.41848 6.63316 6.10054 6.86758 5.86612C7.102 5.6317 7.41994 5.5 7.75146 5.5C8.08299 5.5 8.40093 5.6317 8.63535 5.86612C8.86977 6.10054 9.00146 6.41848 9.00146 6.75C9.00146 7.08152 8.86977 7.39946 8.63535 7.63388C8.40093 7.8683 8.08299 8 7.75146 8C7.41994 8 7.102 7.8683 6.86758 7.63388C6.63316 7.39946 6.50146 7.08152 6.50146 6.75Z" fill="#343B34"/>
<path d="M13.1515 0H3.92152C3.38752 0 2.94152 -2.79397e-08 2.57652 0.03C2.19652 0.06 1.84052 0.128 1.50252 0.3C0.682521 0.717 0.298522 1.388 0.132522 2.08C-0.00447844 2.646 -0.00147842 3.269 0.000521584 3.767L0.00152151 3.95V18C0.00152151 18.3978 0.159557 18.7794 0.440861 19.0607C0.722166 19.342 1.1037 19.5 1.50152 19.5H12.1535C12.7705 19.5 13.4335 19.414 13.9095 18.952C14.3935 18.485 14.5015 17.815 14.5015 17.15V16.242C14.7666 16.1096 14.9911 15.9082 15.1515 15.659C15.4295 15.227 15.5015 14.693 15.5015 14.15V2.35C15.5015 1.734 15.4155 1.07 14.9545 0.593C14.4875 0.109 13.8185 0 13.1515 0ZM12.1535 18H1.50152C1.50152 17.6022 1.65956 17.2206 1.94086 16.9393C2.22217 16.658 2.6037 16.5 3.00152 16.5H13.0015V17.15C13.0015 17.72 12.8915 17.85 12.8675 17.874C12.8365 17.904 12.7005 18 12.1535 18ZM7.75152 4C8.28744 3.99996 8.81169 4.15652 9.25983 4.45042C9.70796 4.74432 10.0605 5.16276 10.274 5.6543C10.4875 6.14584 10.5528 6.68906 10.4617 7.21719C10.3707 7.74531 10.1273 8.23533 9.76152 8.627C9.95219 8.73633 10.1322 8.86367 10.3015 9.009C11.0355 9.638 11.5015 10.572 11.5015 11.75C11.5015 11.9489 11.4225 12.1397 11.2819 12.2803C11.1412 12.421 10.9504 12.5 10.7515 12.5C10.5526 12.5 10.3618 12.421 10.2212 12.2803C10.0805 12.1397 10.0015 11.9489 10.0015 11.75C10.0015 10.998 9.71752 10.484 9.32552 10.147C8.91752 9.797 8.34852 9.604 7.75152 9.604C7.15452 9.604 6.58552 9.797 6.17752 10.147C5.78552 10.484 5.50152 10.997 5.50152 11.75C5.50152 11.9489 5.4225 12.1397 5.28185 12.2803C5.1412 12.421 4.95043 12.5 4.75152 12.5C4.55261 12.5 4.36184 12.421 4.22119 12.2803C4.08054 12.1397 4.00152 11.9489 4.00152 11.75C4.00152 10.572 4.46752 9.638 5.20152 9.009C5.37085 8.863 5.55085 8.73567 5.74152 8.627C5.37573 8.23533 5.13236 7.74531 5.04132 7.21719C4.95027 6.68906 5.01552 6.14584 5.22905 5.6543C5.44258 5.16276 5.79508 4.74432 6.24322 4.45042C6.69136 4.15652 7.21561 3.99996 7.75152 4Z" fill="#343B34"/>
</svg>
