<svg width="39" height="39" viewBox="0 0 39 39" fill="none" xmlns="http://www.w3.org/2000/svg">
<path opacity="0.2" d="M35.9186 12.8858L16.5129 32.2915C16.4006 32.4039 16.2673 32.4931 16.1205 32.5539C15.9737 32.6147 15.8164 32.6461 15.6575 32.6461C15.4986 32.6461 15.3412 32.6147 15.1945 32.5539C15.0477 32.4931 14.9143 32.4039 14.802 32.2915L3.9808 21.4098C3.75423 21.183 3.62695 20.8756 3.62695 20.5551C3.62695 20.2346 3.75423 19.9272 3.9808 19.7004L7.60804 16.0732C7.72033 15.9608 7.85367 15.8716 8.00045 15.8108C8.14723 15.7499 8.30457 15.7186 8.46346 15.7186C8.62235 15.7186 8.77968 15.7499 8.92646 15.8108C9.07324 15.8716 9.20659 15.9608 9.31888 16.0732L15.7179 22.2818L30.5805 7.60815C30.6928 7.49573 30.8261 7.40655 30.9729 7.3457C31.1197 7.28486 31.277 7.25354 31.4359 7.25354C31.5948 7.25354 31.7522 7.28486 31.8989 7.3457C32.0457 7.40655 32.1791 7.49573 32.2913 7.60815L35.9186 11.1749C36.031 11.2872 36.1202 11.4206 36.181 11.5673C36.2419 11.7141 36.2732 11.8715 36.2732 12.0303C36.2732 12.1892 36.2419 12.3466 36.181 12.4934C36.1202 12.6401 36.031 12.7735 35.9186 12.8858Z" fill="#00BC6C" fill-opacity="0.72"/>
<path d="M36.768 10.3134L33.1408 6.75268C32.6875 6.30091 32.0736 6.04724 31.4337 6.04724C30.7937 6.04724 30.1799 6.30091 29.7266 6.75268L15.718 20.5891L10.1728 15.2087C9.71863 14.7584 9.10453 14.5063 8.46495 14.5078C7.82537 14.5092 7.2124 14.7639 6.7602 15.2162L3.13297 18.8435C2.68028 19.2968 2.42603 19.9113 2.42603 20.552C2.42603 21.1927 2.68028 21.8072 3.13297 22.2606L13.9572 33.1423C14.1818 33.3669 14.4484 33.5451 14.7418 33.6666C15.0352 33.7882 15.3497 33.8508 15.6673 33.8508C15.9849 33.8508 16.2994 33.7882 16.5928 33.6666C16.8863 33.5451 17.1529 33.3669 17.3774 33.1423L36.7755 13.7396C37.0006 13.5145 37.1789 13.2471 37.3004 12.9529C37.4218 12.6586 37.484 12.3433 37.4833 12.025C37.4826 11.7066 37.419 11.3916 37.2963 11.0979C37.1735 10.8042 36.994 10.5376 36.768 10.3134ZM15.6605 31.436L4.83626 20.5543L8.46349 16.9271C8.46789 16.9307 8.47194 16.9348 8.47558 16.9392L14.8761 23.1493C15.1021 23.3704 15.4056 23.4942 15.7217 23.4942C16.0378 23.4942 16.3414 23.3704 16.5673 23.1493L31.445 8.46352L35.0632 12.0303L15.6605 31.436Z" fill="#00BC6C" fill-opacity="0.72"/>
</svg>
