<svg width="24" height="27" viewBox="0 0 24 27" fill="none" xmlns="http://www.w3.org/2000/svg">
<g clip-path="url(#clip0_380_1875)">
<path d="M5.37928 0.126465C2.63793 0.126465 0.413818 2.31583 0.413818 5.01434V21.3073C0.413818 24.0058 2.63793 26.1951 5.37928 26.1951H21.9308C22.8463 26.1951 23.586 25.4671 23.586 24.5659C23.586 23.6647 22.8463 22.9366 21.9308 22.9366V19.678C22.8463 19.678 23.586 18.9499 23.586 18.0487V1.75576C23.586 0.854555 22.8463 0.126465 21.9308 0.126465H5.37928ZM5.37928 19.678H18.6205V22.9366H5.37928C4.46377 22.9366 3.72413 22.2085 3.72413 21.3073C3.72413 20.4061 4.46377 19.678 5.37928 19.678ZM7.03444 7.45828C7.03444 7.01023 7.40685 6.64364 7.86201 6.64364H17.7929C18.2481 6.64364 18.6205 7.01023 18.6205 7.45828C18.6205 7.90634 18.2481 8.27293 17.7929 8.27293H7.86201C7.40685 8.27293 7.03444 7.90634 7.03444 7.45828ZM7.86201 9.90222H17.7929C18.2481 9.90222 18.6205 10.2688 18.6205 10.7169C18.6205 11.1649 18.2481 11.5315 17.7929 11.5315H7.86201C7.40685 11.5315 7.03444 11.1649 7.03444 10.7169C7.03444 10.2688 7.40685 9.90222 7.86201 9.90222Z" fill="white"/>
</g>
<defs>
<clipPath id="clip0_380_1875">
<rect width="23.1722" height="26.0687" fill="white" transform="translate(0.413818 0.126465)"/>
</clipPath>
</defs>
</svg>
