<svg width="15" height="15" viewBox="0 0 15 15" fill="none" xmlns="http://www.w3.org/2000/svg">
<path d="M10.2266 5.5482C10.2906 5.48849 10.3423 5.41675 10.3786 5.33708C10.4149 5.25741 10.4352 5.17137 10.4383 5.08386C10.4413 4.99636 10.4271 4.90911 10.3965 4.82709C10.3658 4.74508 10.3193 4.6699 10.2596 4.60586C10.1999 4.54182 10.1281 4.49017 10.0485 4.45385C9.96881 4.41753 9.88276 4.39726 9.79526 4.3942C9.70776 4.39113 9.62051 4.40534 9.53849 4.43599C9.45647 4.46665 9.3813 4.51315 9.31726 4.57286L7.36659 6.39153L5.54792 4.4402C5.42624 4.31556 5.2606 4.2435 5.08645 4.23944C4.91231 4.23538 4.74349 4.29964 4.61613 4.41847C4.48876 4.53729 4.41296 4.70125 4.40495 4.87526C4.39694 5.04927 4.45735 5.2195 4.57326 5.34953L6.39193 7.3002L4.44059 9.11886C4.37429 9.17797 4.32046 9.24972 4.28228 9.32991C4.24409 9.41011 4.22232 9.49713 4.21823 9.58585C4.21415 9.67458 4.22784 9.76323 4.25849 9.84659C4.28914 9.92996 4.33615 10.0064 4.39674 10.0713C4.45733 10.1362 4.53029 10.1884 4.61133 10.2248C4.69237 10.2611 4.77986 10.2809 4.86865 10.283C4.95745 10.2851 5.04577 10.2694 5.12841 10.2368C5.21106 10.2043 5.28637 10.1556 5.34992 10.0935L7.30059 8.27553L9.11926 10.2262C9.17798 10.2937 9.2497 10.3487 9.33013 10.388C9.41057 10.4272 9.49808 10.4498 9.58745 10.4545C9.67681 10.4592 9.76621 10.4458 9.8503 10.4152C9.9344 10.3846 10.0115 10.3374 10.0769 10.2764C10.1424 10.2153 10.1949 10.1418 10.2313 10.06C10.2677 9.97827 10.2873 9.89003 10.2889 9.80055C10.2905 9.71108 10.274 9.6222 10.2405 9.53921C10.207 9.45623 10.1572 9.38083 10.0939 9.31753L8.27592 7.36686L10.2266 5.5482Z" fill="white"/>
<path fill-rule="evenodd" clip-rule="evenodd" d="M0 7.33333C0 3.28333 3.28333 0 7.33333 0C11.3833 0 14.6667 3.28333 14.6667 7.33333C14.6667 11.3833 11.3833 14.6667 7.33333 14.6667C3.28333 14.6667 0 11.3833 0 7.33333ZM7.33333 13.3333C6.5454 13.3333 5.76519 13.1781 5.03723 12.8766C4.30928 12.5751 3.64784 12.1331 3.09069 11.576C2.53354 11.0188 2.09158 10.3574 1.79006 9.62943C1.48853 8.90148 1.33333 8.12126 1.33333 7.33333C1.33333 6.5454 1.48853 5.76519 1.79006 5.03723C2.09158 4.30928 2.53354 3.64784 3.09069 3.09069C3.64784 2.53354 4.30928 2.09158 5.03723 1.79006C5.76519 1.48853 6.5454 1.33333 7.33333 1.33333C8.92463 1.33333 10.4508 1.96547 11.576 3.09069C12.7012 4.21591 13.3333 5.74203 13.3333 7.33333C13.3333 8.92463 12.7012 10.4508 11.576 11.576C10.4508 12.7012 8.92463 13.3333 7.33333 13.3333Z" fill="white"/>
</svg>
