<svg width="14" height="14" viewBox="0 0 14 14" fill="none" xmlns="http://www.w3.org/2000/svg">
<path d="M1.9682 0.324L6.6002 4.956L11.2082 0.348C11.31 0.23966 11.4326 0.15299 11.5687 0.0932002C11.7048 0.0334002 11.8515 0.0017 12.0002 0C12.3184 0 12.6237 0.12643 12.8487 0.35147C13.0737 0.57652 13.2002 0.88174 13.2002 1.2C13.203 1.34712 13.1757 1.49327 13.12 1.62946C13.0642 1.76565 12.9813 1.88902 12.8762 1.992L8.20822 6.6L12.8762 11.268C13.074 11.4615 13.1899 11.7235 13.2002 12C13.2002 12.3183 13.0737 12.6235 12.8487 12.8485C12.6237 13.0736 12.3184 13.2 12.0002 13.2C11.8472 13.2063 11.6947 13.1808 11.5521 13.125C11.4096 13.0693 11.2802 12.9844 11.1722 12.876L6.6002 8.24401L1.9802 12.864C1.8788 12.9687 1.75767 13.0523 1.6238 13.11C1.48992 13.1677 1.34595 13.1983 1.2002 13.2C0.881936 13.2 0.576706 13.0736 0.351666 12.8485C0.126616 12.6235 0.000195581 12.3183 0.000195581 12C-0.00260442 11.8529 0.0246855 11.7067 0.0804055 11.5705C0.136116 11.4343 0.219075 11.311 0.324195 11.208L4.99219 6.6L0.324195 1.932C0.126415 1.73851 0.0104356 1.4765 0.000195581 1.2C0.000195581 0.88174 0.126616 0.57652 0.351666 0.35147C0.576706 0.12643 0.881936 0 1.2002 0C1.4882 0.0036 1.7642 0.12 1.9682 0.324Z" fill="#DC2626"/>
</svg>
