<svg width="16" height="14" viewBox="0 0 16 14" fill="none" xmlns="http://www.w3.org/2000/svg">
<path d="M1.75 0C1.28587 0 0.840752 0.184375 0.512563 0.512563C0.184375 0.840752 0 1.28587 0 1.75V5.01C0.522508 4.67603 1.12988 4.49903 1.75 4.5H14.25C14.894 4.5 15.495 4.688 16 5.01V3.75C16 3.28587 15.8156 2.84075 15.4874 2.51256C15.1592 2.18437 14.7141 2 14.25 2H9.414C9.38115 2.00006 9.34861 1.99364 9.31823 1.98112C9.28786 1.96859 9.26026 1.9502 9.237 1.927L7.823 0.513C7.49499 0.184758 7.05004 0.000231701 6.586 0H1.75ZM1.75 6C1.28587 6 0.840752 6.18437 0.512563 6.51256C0.184375 6.84075 0 7.28587 0 7.75V12.25C0 13.216 0.784 14 1.75 14H14.25C14.7141 14 15.1592 13.8156 15.4874 13.4874C15.8156 13.1592 16 12.7141 16 12.25V7.75C16 7.28587 15.8156 6.84075 15.4874 6.51256C15.1592 6.18437 14.7141 6 14.25 6H1.75Z" fill="#343B34"/>
</svg>
