<svg xmlns="http://www.w3.org/2000/svg" viewBox="0 0 48 48">
  <path fill="#1e88e5" d="M38.71 20.07C37.35 13.19 31.28 8 24 8c-5.78 0-10.79 3.28-13.3 8.07C4.69 16.72 0 21.81 0 28c0 6.63 5.37 12 12 12h26c5.52 0 10-4.48 10-10 0-5.28-4.11-9.56-9.29-9.93z"/>
  <path fill="#0d47a1" d="M38.71 20.07C37.35 13.19 31.28 8 24 8c-5.78 0-10.79 3.28-13.3 8.07C4.69 16.72 0 21.81 0 28c0 6.63 5.37 12 12 12h26c5.52 0 10-4.48 10-10 0-5.28-4.11-9.56-9.29-9.93zM38 36H12c-4.42 0-8-3.58-8-8s3.58-8 8-8h.14C16.18 20 19 17.28 19 14c0-3.87 3.13-7 7-7 3.38 0 6.21 2.41 6.86 5.59C34.61 13.52 38 17.07 38 21c0 0.55 0.45 1 1 1s1-0.45 1-1c0-2.21-1.79-4-4-4s-4 1.79-4 4c0 2.21 1.79 4 4 4 4.42 0 8 3.58 8 8S42.42 36 38 36z"/>
</svg>