<svg width="15" height="17" viewBox="0 0 15 17" fill="none" xmlns="http://www.w3.org/2000/svg">
<path d="M1.58333 0C0.7125 0 0 0.7125 0 1.58333V14.25C0 15.1208 0.7125 15.8333 1.58333 15.8333H4.75V14.3292L12.6667 6.4125V4.75L7.91667 0H1.58333ZM7.125 1.1875L11.4792 5.54167H7.125V1.1875ZM12.7458 8.70833C12.6667 8.70833 12.5083 8.7875 12.4292 8.86667L11.6375 9.65833L13.3 11.3208L14.0917 10.5292C14.25 10.3708 14.25 10.0542 14.0917 9.89583L13.0625 8.86667C12.9833 8.7875 12.9042 8.70833 12.7458 8.70833ZM11.1625 10.1333L6.33333 14.9625V16.625H7.99583L12.825 11.7958L11.1625 10.1333Z" fill="#343B34"/>
</svg>
