<svg width="17" height="16" viewBox="0 0 17 16" fill="none" xmlns="http://www.w3.org/2000/svg">
<path fill-rule="evenodd" clip-rule="evenodd" d="M1.67852 0C1.23335 0 0.806411 0.210714 0.491627 0.585786C0.176844 0.960859 0 1.46957 0 2V14C0 14.5304 0.176844 15.0391 0.491627 15.4142C0.806411 15.7893 1.23335 16 1.67852 16H15.1067C15.5519 16 15.9788 15.7893 16.2936 15.4142C16.6084 15.0391 16.7852 14.5304 16.7852 14V2C16.7852 1.46957 16.6084 0.960859 16.2936 0.585786C15.9788 0.210714 15.5519 0 15.1067 0H1.67852ZM10.0711 5C10.0711 4.73478 10.1595 4.48043 10.3169 4.29289C10.4743 4.10536 10.6878 4 10.9104 4H13.4282C13.6508 4 13.8642 4.10536 14.0216 4.29289C14.179 4.48043 14.2674 4.73478 14.2674 5C14.2674 5.26522 14.179 5.51957 14.0216 5.70711C13.8642 5.89464 13.6508 6 13.4282 6H10.9104C10.6878 6 10.4743 5.89464 10.3169 5.70711C10.1595 5.51957 10.0711 5.26522 10.0711 5ZM10.0711 8C10.0711 7.73478 10.1595 7.48043 10.3169 7.29289C10.4743 7.10536 10.6878 7 10.9104 7H13.4282C13.6508 7 13.8642 7.10536 14.0216 7.29289C14.179 7.48043 14.2674 7.73478 14.2674 8C14.2674 8.26522 14.179 8.51957 14.0216 8.70711C13.8642 8.89464 13.6508 9 13.4282 9H10.9104C10.6878 9 10.4743 8.89464 10.3169 8.70711C10.1595 8.51957 10.0711 8.26522 10.0711 8ZM10.0711 11C10.0711 10.7348 10.1595 10.4804 10.3169 10.2929C10.4743 10.1054 10.6878 10 10.9104 10H13.4282C13.6508 10 13.8642 10.1054 14.0216 10.2929C14.179 10.4804 14.2674 10.7348 14.2674 11C14.2674 11.2652 14.179 11.5196 14.0216 11.7071C13.8642 11.8946 13.6508 12 13.4282 12H10.9104C10.6878 12 10.4743 11.8946 10.3169 11.7071C10.1595 11.5196 10.0711 11.2652 10.0711 11ZM3.35704 6C3.35704 5.20435 3.62231 4.44129 4.09448 3.87868C4.56666 3.31607 5.20706 3 5.87482 3C6.54258 3 7.18299 3.31607 7.65516 3.87868C8.12734 4.44129 8.3926 5.20435 8.3926 6C8.3926 6.79565 8.12734 7.55871 7.65516 8.12132C7.18299 8.68393 6.54258 9 5.87482 9C5.20706 9 4.56666 8.68393 4.09448 8.12132C3.62231 7.55871 3.35704 6.79565 3.35704 6ZM4.98688 10C4.45834 9.99978 3.94315 10.1978 3.5143 10.5659C3.08545 10.934 2.76471 11.4536 2.59751 12.051L2.56058 12.184L2.55723 12.196C2.52198 12.322 2.51107 12.363 2.52198 12.391C2.52701 12.404 2.53876 12.414 2.55387 12.43C2.58073 12.455 2.62101 12.494 2.6764 12.585C2.75416 12.7135 2.85642 12.8181 2.97476 12.8902C3.09309 12.9624 3.22411 13 3.35704 13H8.3926C8.52553 13 8.65655 12.9624 8.77489 12.8902C8.89322 12.8181 8.99548 12.7135 9.07324 12.585C9.10721 12.5262 9.14854 12.4739 9.19577 12.43C9.21172 12.414 9.22179 12.404 9.22767 12.39C9.23942 12.363 9.22767 12.322 9.19242 12.196L9.18906 12.184L9.15213 12.051C8.98498 11.4537 8.66436 10.9343 8.23568 10.5662C7.80701 10.1981 7.292 9.99999 6.7636 10H4.98688Z" fill="#465746"/>
</svg>
