<svg width="12" height="10" viewBox="0 0 12 10" fill="none" xmlns="http://www.w3.org/2000/svg">
<path d="M11 0H1C0.45 0 0 0.45 0 1V9C0 9.55 0.45 10 1 10H11C11.55 10 12 9.55 12 9V1C12 0.45 11.55 0 11 0ZM11.04 4.62L9.82 6.45C9.59 6.8 9.01 6.8 8.78 6.45L7.1 3.93L4.69 7.55C4.57 7.72 4.38 7.83 4.17 7.83C3.96 7.83 3.77 7.73 3.65 7.55L2.7 6.13L2.02 7.15C1.83 7.44 1.44 7.51 1.15 7.32C0.86 7.13 0.79 6.74 0.98 6.46L2.18 4.66C2.3 4.48 2.49 4.38 2.7 4.38C2.91 4.38 3.1 4.48 3.22 4.66L4.17 6.08L6.58 2.46C6.81 2.11 7.39 2.11 7.62 2.46L9.3 4.97L10 3.92C10.19 3.63 10.58 3.55 10.87 3.75C11.15 3.94 11.23 4.33 11.04 4.62Z" fill="white"/>
</svg>
