<svg width="38" height="38" viewBox="0 0 38 38" fill="none" xmlns="http://www.w3.org/2000/svg">
<path d="M24.035 17.3217C24.3516 16.625 24.5416 15.865 24.5416 15.0417C24.5416 11.9858 22.0558 9.5 19 9.5C18.1766 9.5 17.4166 9.69 16.72 10.0067L24.035 17.3217Z" fill="#AA4646"/>
<path d="M19.0001 3.16663C10.2601 3.16663 3.16675 10.26 3.16675 19C3.16675 27.74 10.2601 34.8333 19.0001 34.8333C27.7401 34.8333 34.8334 27.74 34.8334 19C34.8334 10.26 27.7401 3.16663 19.0001 3.16663ZM19.0001 23.75C15.3267 23.75 11.9542 25.0166 9.27841 27.1066C7.3739 24.8349 6.33113 21.9644 6.33341 19C6.33341 16.0708 7.33091 13.3791 9.00925 11.2416L13.5376 15.77C13.6948 16.9704 14.2442 18.0853 15.1003 18.9414C15.9564 19.7976 17.0713 20.3469 18.2717 20.5041L21.7551 23.9875C20.8526 23.8291 19.9342 23.75 19.0001 23.75ZM28.9909 26.7583L11.2417 9.00913C13.4533 7.27004 16.1866 6.32733 19.0001 6.33329C25.9984 6.33329 31.6667 12.0016 31.6667 19C31.6667 21.9291 30.6692 24.605 28.9909 26.7583Z" fill="#AA4646"/>
</svg>
