<svg width="20" height="15" viewBox="0 0 20 15" fill="none" xmlns="http://www.w3.org/2000/svg">
<path fill-rule="evenodd" clip-rule="evenodd" d="M19.5499 0.43968C19.8311 0.72097 19.9891 1.10243 19.9891 1.50018C19.9891 1.89792 19.8311 2.27938 19.5499 2.56068L8.30691 13.8037C8.15831 13.9523 7.98196 14.0702 7.78781 14.1506C7.59367 14.231 7.38558 14.2724 7.17544 14.2724C6.96529 14.2724 6.7572 14.231 6.56306 14.1506C6.36891 14.0702 6.19251 13.9523 6.04394 13.8037L0.457937 8.21871C0.314667 8.08031 0.200397 7.91481 0.121777 7.73181C0.0431667 7.54881 0.00178659 7.35191 5.65924e-05 7.15281C-0.00167341 6.95361 0.0362766 6.75611 0.111697 6.57171C0.187127 6.38741 0.298497 6.21991 0.439337 6.07911C0.580177 5.93821 0.747657 5.82691 0.931997 5.75141C1.11635 5.67601 1.31387 5.63811 1.51304 5.63981C1.71221 5.64151 1.90904 5.68291 2.09204 5.76151C2.27505 5.84011 2.44057 5.95441 2.57894 6.09771L7.17494 10.6937L17.4279 0.43968C17.5672 0.30029 17.7326 0.18971 17.9147 0.11427C18.0967 0.0388297 18.2919 0 18.4889 0C18.686 0 18.8811 0.0388297 19.0632 0.11427C19.2452 0.18971 19.4106 0.30029 19.5499 0.43968Z" fill="#F59E0B"/>
</svg>
