<svg width="39" height="39" viewBox="0 0 39 39" fill="none" xmlns="http://www.w3.org/2000/svg">
<path opacity="0.3" d="M30.0657 31.1943L26.5997 27.7283V22.5696H28.2118V27.0673L31.1942 30.0497L30.0657 31.1943ZM27.4057 16.1211C27.9539 16.1211 28.4859 16.1695 29.0178 16.2501V8.06063H25.7936V12.8969H12.8968V8.06063H9.67261V32.2422H17.2173C16.3993 30.5229 16.0301 28.6245 16.1438 26.724C16.2576 24.8235 16.8507 22.9827 17.8679 21.3733C18.885 19.7638 20.2931 18.4382 21.9609 17.5198C23.6287 16.6014 25.5018 16.1202 27.4057 16.1211ZM19.3452 8.06063C18.4586 8.06063 17.7331 7.33519 17.7331 6.44853C17.7331 5.56187 18.4586 4.83643 19.3452 4.83643C20.2319 4.83643 20.9573 5.56187 20.9573 6.44853C20.9573 7.33519 20.2319 8.06063 19.3452 8.06063Z" fill="#4951AA"/>
<path d="M27.4057 19.3452C22.9563 19.3452 19.3452 22.9563 19.3452 27.4057C19.3452 31.8551 22.9563 35.4662 27.4057 35.4662C31.8551 35.4662 35.4662 31.8551 35.4662 27.4057C35.4662 22.9563 31.8551 19.3452 27.4057 19.3452ZM30.0657 31.1942L26.5997 27.7281V22.5694H28.2118V27.0672L31.1941 30.0496L30.0657 31.1942ZM29.0178 4.83627H23.8913C23.2142 2.96623 21.4409 1.61206 19.3452 1.61206C17.2495 1.61206 15.4761 2.96623 14.7991 4.83627H9.67257C7.89926 4.83627 6.44836 6.28716 6.44836 8.06047V32.242C6.44836 34.0153 7.89926 35.4662 9.67257 35.4662H19.5225C18.5676 34.5415 17.7915 33.4485 17.2333 32.242H9.67257V8.06047H12.8968V12.8968H25.7936V8.06047H29.0178V16.25C30.1624 16.4112 31.2425 16.7497 32.242 17.2172V8.06047C32.242 6.28716 30.7911 4.83627 29.0178 4.83627ZM19.3452 8.06047C18.4585 8.06047 17.7331 7.33503 17.7331 6.44837C17.7331 5.56171 18.4585 4.83627 19.3452 4.83627C20.2318 4.83627 20.9573 5.56171 20.9573 6.44837C20.9573 7.33503 20.2318 8.06047 19.3452 8.06047Z" fill="#4951AA"/>
</svg>
