<svg width="25" height="26" viewBox="0 0 25 26" fill="none" xmlns="http://www.w3.org/2000/svg">
<path d="M13.548 3.646C13.3653 3.646 13.2168 3.7945 13.2168 3.9775C13.2168 3.9945 13.224 4.00925 13.2265 4.02575H13.2168V11.8852C13.2168 12.0682 13.3653 12.2167 13.548 12.2167H21.4073V12.207C21.4238 12.2095 21.4385 12.2167 21.4558 12.2167C21.6385 12.2167 21.787 12.0682 21.787 11.8852C21.74 7.35525 18.078 3.69325 13.548 3.646Z" fill="#465746"/>
<path d="M19.8714 13.7937C19.8714 13.6107 19.7231 13.4622 19.5401 13.4622H12.3154C12.2275 13.4622 12.1433 13.4272 12.0811 13.3651C12.019 13.3029 11.9841 13.2186 11.9841 13.1307V5.93248H11.9744C11.9769 5.91598 11.9841 5.90123 11.9841 5.88423C11.9841 5.70098 11.8356 5.55273 11.6526 5.55273C11.6446 5.55273 11.6381 5.55673 11.6304 5.55723V5.55498C11.6009 5.55473 11.5716 5.55273 11.5421 5.55273C6.94214 5.55273 3.21289 9.28198 3.21289 13.882C3.21289 18.482 6.94214 22.2112 11.5421 22.2112C16.1421 22.2112 19.8714 18.482 19.8714 13.882C19.8711 13.8557 19.8705 13.8292 19.8696 13.8025C19.8696 13.7992 19.8714 13.7967 19.8714 13.7937Z" fill="#465746"/>
</svg>
