<svg width="25" height="25" viewBox="0 0 25 25" fill="none" xmlns="http://www.w3.org/2000/svg">
<path d="M13.548 3.2175C13.3653 3.2175 13.2168 3.366 13.2168 3.549C13.2168 3.566 13.224 3.58075 13.2265 3.59725H13.2168V11.4567C13.2168 11.6397 13.3653 11.7882 13.548 11.7882H21.4073V11.7785C21.4238 11.781 21.4385 11.7882 21.4558 11.7882C21.6385 11.7882 21.787 11.6397 21.787 11.4567C21.74 6.92675 18.078 3.26475 13.548 3.2175Z" fill="white"/>
<path d="M19.8714 13.365C19.8714 13.182 19.7231 13.0335 19.5401 13.0335H12.3154C12.2275 13.0334 12.1433 12.9985 12.0811 12.9363C12.019 12.8741 11.9841 12.7899 11.9841 12.702V5.50374H11.9744C11.9769 5.48724 11.9841 5.47249 11.9841 5.45549C11.9841 5.27224 11.8356 5.12399 11.6526 5.12399C11.6446 5.12399 11.6381 5.12799 11.6304 5.12849V5.12624C11.6009 5.12599 11.5716 5.12399 11.5421 5.12399C6.94214 5.12399 3.21289 8.85324 3.21289 13.4532C3.21289 18.0532 6.94214 21.7825 11.5421 21.7825C16.1421 21.7825 19.8714 18.0532 19.8714 13.4532C19.8711 13.4269 19.8705 13.4004 19.8696 13.3737C19.8696 13.3705 19.8714 13.368 19.8714 13.365Z" fill="white"/>
</svg>
