<svg width="14" height="14" viewBox="0 0 14 14" fill="none" xmlns="http://www.w3.org/2000/svg">
<path fill-rule="evenodd" clip-rule="evenodd" d="M6.66666 0C7.54214 -4.10375e-06 8.40905 0.172431 9.21789 0.50746C10.0267 0.842489 10.7617 1.33355 11.3807 1.95261C11.9998 2.57166 12.4908 3.30659 12.8259 4.11543C13.1609 4.92427 13.3333 5.79118 13.3333 6.66666C13.3333 10.3486 10.3486 13.3333 6.66666 13.3333C2.98478 13.3333 0 10.3486 0 6.66666C0 2.98478 2.98478 0 6.66666 0ZM7.33334 7.33334H6C4.34953 7.33334 2.93256 8.33294 2.32141 9.75984C3.28841 11.1158 4.87428 12 6.66666 12C8.45903 12 10.0449 11.1158 11.0119 9.75975C10.4008 8.33294 8.98381 7.33334 7.33334 7.33334ZM6.66666 2C5.56209 2 4.66666 2.89544 4.66666 4C4.66666 5.10456 5.56209 6 6.66666 6C7.77122 6 8.66666 5.10456 8.66666 4C8.66666 2.89544 7.77125 2 6.66666 2Z" fill="white"/>
</svg>
