<svg width="22" height="18" viewBox="0 0 22 18" fill="none" xmlns="http://www.w3.org/2000/svg">
<g clip-path="url(#clip0_717_5195)">
<path d="M7.14999 12.375C7.06784 12.375 6.98568 12.3873 6.90731 12.4133C6.46181 12.5613 5.99328 12.6562 5.49999 12.6562C5.00671 12.6562 4.53818 12.5613 4.09234 12.4133C4.01396 12.3873 3.93215 12.375 3.84999 12.375C1.71668 12.375 -0.0113493 14.1497 -5.50307e-06 16.3343C0.004807 17.2575 0.746963 18 1.64999 18H9.34999C10.253 18 10.9952 17.2575 11 16.3343C11.0113 14.1497 9.28331 12.375 7.14999 12.375ZM5.49999 11.25C7.32256 11.25 8.79999 9.73898 8.79999 7.875C8.79999 6.01102 7.32256 4.5 5.49999 4.5C3.67743 4.5 2.19999 6.01102 2.19999 7.875C2.19999 9.73898 3.67743 11.25 5.49999 11.25ZM20.35 0H7.14999C6.24009 0 5.49999 0.782227 5.49999 1.7434V3.375C6.30506 3.375 7.05031 3.61336 7.69999 4.00078V2.25H19.8V12.375H17.6V10.125H13.2V12.375H10.5792C11.2358 12.9618 11.7177 13.7366 11.9436 14.625H20.35C21.2599 14.625 22 13.8428 22 12.8816V1.7434C22 0.782227 21.2599 0 20.35 0Z" fill="white"/>
</g>
<defs>
<clipPath id="clip0_717_5195">
<rect width="22" height="18" fill="white"/>
</clipPath>
</defs>
</svg>
