<svg width="24" height="24" viewBox="0 0 24 24" fill="none" xmlns="http://www.w3.org/2000/svg">
<path d="M0.820068 9.35C0.820068 10.1059 1.12034 10.8308 1.65481 11.3653C2.18929 11.8997 2.9142 12.2 3.67007 12.2C4.42594 12.2 5.15084 11.8997 5.68532 11.3653C6.2198 10.8308 6.52007 10.1059 6.52007 9.35C6.52007 8.59413 6.2198 7.86922 5.68532 7.33475C5.15084 6.80027 4.42594 6.5 3.67007 6.5C2.9142 6.5 2.18929 6.80027 1.65481 7.33475C1.12034 7.86922 0.820068 8.59413 0.820068 9.35Z" fill="white"/>
<path d="M0.530092 14.7498H6.81009C6.90356 14.7489 6.99496 14.7222 7.07432 14.6729C7.15368 14.6235 7.21795 14.5532 7.26009 14.4698C7.301 14.3842 7.31617 14.2885 7.30374 14.1944C7.29131 14.1003 7.25183 14.0119 7.19009 13.9398C6.76995 13.4096 6.23471 12.9819 5.62487 12.6891C5.01502 12.3963 4.34657 12.2461 3.67009 12.2498C2.99411 12.249 2.32663 12.4006 1.71724 12.6931C1.10785 12.9857 0.572207 13.4118 0.150092 13.9398C0.0883529 14.0119 0.0488719 14.1003 0.0364455 14.1944C0.0240191 14.2885 0.039182 14.3842 0.0800924 14.4698C0.12224 14.5532 0.186504 14.6235 0.265864 14.6729C0.345224 14.7222 0.436629 14.7489 0.530092 14.7498ZM12.1201 6.99981C12.6816 6.99972 13.2306 6.83376 13.6981 6.52275C14.1657 6.21174 14.5309 5.76955 14.748 5.25169C14.9651 4.73383 15.0244 4.16337 14.9184 3.61193C14.8125 3.06049 14.5459 2.55265 14.1524 2.15215C13.7588 1.75165 13.2556 1.47635 12.7061 1.3608C12.1566 1.24525 11.5852 1.2946 11.0636 1.50267C10.5421 1.71073 10.0936 2.06823 9.77452 2.53028C9.45543 2.99234 9.27994 3.53836 9.27009 4.09981C9.2648 4.4779 9.33454 4.85329 9.47527 5.20425C9.616 5.55522 9.82494 5.87479 10.09 6.14449C10.355 6.41418 10.6709 6.62864 11.0194 6.77545C11.3678 6.92227 11.742 6.99852 12.1201 6.99981ZM8.47009 9.74981H15.7601C15.8538 9.74999 15.9457 9.72384 16.0252 9.67433C16.1048 9.62483 16.1689 9.55396 16.2101 9.46981C16.2523 9.38511 16.2692 9.28998 16.2585 9.19593C16.2479 9.10187 16.2102 9.01291 16.1501 8.93981C15.6696 8.34004 15.061 7.85542 14.3688 7.52146C13.6767 7.1875 12.9186 7.01268 12.1501 7.00981C11.3816 7.01268 10.6235 7.1875 9.93135 7.52146C9.23921 7.85542 8.63058 8.34004 8.15009 8.93981C8.07698 9.00452 8.02398 9.08886 7.99739 9.18281C7.9708 9.27676 7.97174 9.37637 8.00009 9.46981C8.04276 9.55709 8.10993 9.63006 8.1934 9.67979C8.27687 9.72951 8.37302 9.75385 8.47009 9.74981ZM17.4801 9.34981C17.4801 10.1057 17.7804 10.8306 18.3148 11.3651C18.8493 11.8995 19.5742 12.1998 20.3301 12.1998C21.086 12.1998 21.8109 11.8995 22.3453 11.3651C22.8798 10.8306 23.1801 10.1057 23.1801 9.34981C23.1801 8.59394 22.8798 7.86903 22.3453 7.33455C21.8109 6.80007 21.086 6.49981 20.3301 6.49981C19.5742 6.49981 18.8493 6.80007 18.3148 7.33455C17.7804 7.86903 17.4801 8.59394 17.4801 9.34981Z" fill="white"/>
<path d="M17.2 14.75H23.47C23.5637 14.7502 23.6556 14.7241 23.7352 14.6746C23.8147 14.625 23.8788 14.5542 23.92 14.47C23.9599 14.3848 23.9754 14.2901 23.9648 14.1966C23.9542 14.103 23.918 14.0142 23.86 13.94C23.4369 13.4107 22.8996 12.9838 22.2884 12.6912C21.6771 12.3985 21.0077 12.2477 20.33 12.25C19.6542 12.25 18.9869 12.4018 18.3777 12.6943C17.7684 12.9869 17.2326 13.4126 16.81 13.94C16.7499 14.0131 16.7122 14.1021 16.7016 14.1961C16.6909 14.2902 16.7078 14.3853 16.75 14.47C16.7913 14.5542 16.8553 14.625 16.9349 14.6746C17.0144 14.7241 17.1063 14.7502 17.2 14.75Z" fill="white"/>
<path d="M23 16.25H16.5C16.3674 16.25 16.2402 16.1973 16.1464 16.1036C16.0527 16.0098 16 15.8826 16 15.75V12.25C16 11.9848 15.8946 11.7304 15.7071 11.5429C15.5196 11.3554 15.2652 11.25 15 11.25H9C8.73478 11.25 8.48043 11.3554 8.29289 11.5429C8.10536 11.7304 8 11.9848 8 12.25V15.75C8 15.8826 7.94732 16.0098 7.85355 16.1036C7.75979 16.1973 7.63261 16.25 7.5 16.25H1C0.734784 16.25 0.48043 16.3554 0.292893 16.5429C0.105357 16.7304 0 16.9848 0 17.25L0 21.75C0 22.0152 0.105357 22.2696 0.292893 22.4571C0.48043 22.6446 0.734784 22.75 1 22.75H23C23.2652 22.75 23.5196 22.6446 23.7071 22.4571C23.8946 22.2696 24 22.0152 24 21.75V17.25C24 16.9848 23.8946 16.7304 23.7071 16.5429C23.5196 16.3554 23.2652 16.25 23 16.25Z" fill="white"/>
</svg>
