<svg width="21" height="19" viewBox="0 0 21 19" fill="none" xmlns="http://www.w3.org/2000/svg">
<path d="M17.65 16.35L18.35 15.65L16.5 13.8V11H15.5V14.2L17.65 16.35ZM11 6H18V2H11V6ZM16 19C14.6167 19 13.4377 18.5123 12.463 17.537C11.4883 16.5617 11.0007 15.3827 11 14C10.9993 12.6173 11.487 11.4383 12.463 10.463C13.439 9.48767 14.618 9 16 9C17.382 9 18.5613 9.48767 19.538 10.463C20.5147 11.4383 21.002 12.6173 21 14C20.998 15.3827 20.5103 16.562 19.537 17.538C18.5637 18.514 17.3847 19.0013 16 19ZM2 16C1.45 16 0.979333 15.8043 0.588 15.413C0.196667 15.0217 0.000666667 14.5507 0 14V2C0 1.45 0.196 0.979333 0.588 0.588C0.98 0.196666 1.45067 0.000666667 2 0H18C18.55 0 19.021 0.196 19.413 0.588C19.805 0.98 20.0007 1.45067 20 2V8.275C19.4167 7.85833 18.7793 7.54167 18.088 7.325C17.3967 7.10833 16.6923 7 15.975 7C14.0417 7 12.396 7.68333 11.038 9.05C9.68 10.4167 9.00067 12.0667 9 14C9 14.35 9.025 14.6917 9.075 15.025C9.125 15.3583 9.2 15.6833 9.3 16H2Z" fill="white"/>
</svg>
