<svg width="26" height="26" viewBox="0 0 26 26" fill="none" xmlns="http://www.w3.org/2000/svg">
<path d="M2.70837 6.49967L8.66671 4.33301L14.625 6.49967L11.9167 8.12467V9.74967C11.9167 9.74967 11.1941 9.20801 8.66671 9.20801C6.13929 9.20801 5.41671 9.74967 5.41671 9.74967V8.12467L2.70837 6.49967ZM2.70837 6.49967V10.833" stroke="white" stroke-width="1.5" stroke-linecap="round" stroke-linejoin="round"/>
<path d="M11.9167 9.20833V10.1714C11.9167 12.0326 10.4618 13.5417 8.66669 13.5417C6.8716 13.5417 5.41669 12.0326 5.41669 10.1714V9.20833M16.5945 11.9492C16.5945 11.9492 17.1199 11.5668 18.9584 11.5668C20.7968 11.5668 21.3222 11.9481 21.3222 11.9481M16.5945 11.9492V10.8333L14.625 9.75L18.9584 8.125L23.2917 9.75L21.3222 10.8333V11.9481M16.5945 11.9492V12.2612C16.5945 12.8881 16.8436 13.4893 17.2869 13.9326C17.7302 14.376 18.3314 14.625 18.9584 14.625C19.5853 14.625 20.1865 14.376 20.6298 13.9326C21.0731 13.4893 21.3222 12.8881 21.3222 12.2612V11.9481M17.3334 21.6667H21.3471C22.1845 21.6667 22.8497 21.2593 23.4477 20.6895C24.6719 19.5238 22.6623 18.5922 21.8964 18.1361C21.2152 17.734 20.4588 17.4759 19.674 17.3777C18.8892 17.2796 18.0926 17.3433 17.3334 17.5652M4.75044 17.2532C3.72885 17.8241 1.04977 18.9887 2.68127 20.4457C3.4786 21.1575 4.36585 21.6667 5.48277 21.6667H11.8506C12.9664 21.6667 13.8548 21.1575 14.6521 20.4457C16.2836 18.9887 13.6045 17.8241 12.5829 17.2532C10.1866 15.9152 7.14677 15.9152 4.75044 17.2532Z" stroke="white" stroke-width="1.5" stroke-linecap="round" stroke-linejoin="round"/>
</svg>
