<svg width="16" height="18" viewBox="0 0 16 18" fill="none" xmlns="http://www.w3.org/2000/svg">
<path d="M12 5.88184C12 8.09184 10.21 9.88184 8 9.88184C5.79 9.88184 4 8.09184 4 5.88184L4.11 4.94184L2.78483 4.27712C2.04879 3.90792 2.04946 2.8571 2.78598 2.48884L7.55279 0.105443C7.83431 -0.0353208 8.16569 -0.035321 8.44721 0.105443L14.4472 3.10544C14.786 3.27483 15 3.6211 15 3.99987V7.88184C15 8.15798 14.7761 8.38184 14.5 8.38184C14.2239 8.38184 14 8.15798 14 7.88184V3.88184L11.89 4.94184L12 5.88184ZM8 10.8818C12.42 10.8818 16 13.6718 16 15.8818V17.8818H0V15.8818C0 13.6718 3.58 10.8818 8 10.8818Z" fill="white"/>
</svg>
