<svg width="16" height="18" viewBox="0 0 16 18" fill="none" xmlns="http://www.w3.org/2000/svg">
<path d="M5.45366 0.00543105C5.35321 0.0203685 5.25728 0.0572294 5.17267 0.113398C5.17267 0.113398 4.29717 0.664309 3.35591 1.26021C2.41466 1.85541 1.36751 2.51152 1.12804 2.6444L1.08444 2.66517C0.215166 3.20154 0.034528 4.07774 0.00338359 4.56913C0.0013073 4.59197 0.00338359 4.61066 0.00338359 4.63488C-0.00422949 4.81898 0.00338359 4.93733 0.00338359 4.93733V13.9782C0.00338359 15.2918 1.535 15.9237 2.98841 15.9237C3.47288 15.9237 3.95734 15.8455 4.3726 15.7071C4.64944 15.5687 4.84808 15.2918 4.84808 15.015V7.74794C4.84808 6.15611 5.19413 5.40865 6.23227 4.78576C6.50911 4.64734 9.41178 2.64371 9.41178 2.64371C9.5502 2.50529 9.69277 2.2243 9.69277 2.01667V1.95161C9.69277 1.67477 9.55435 1.46299 9.34672 1.32457C9.13909 1.18615 8.86225 1.18615 8.65462 1.32457C8.58541 1.39378 4.36361 4.23623 3.46388 4.7207C2.56415 5.27438 1.72463 5.40796 1.517 5.13112C1.45264 5.06675 1.39658 4.8695 1.38758 4.6771V4.6335C1.38827 4.44525 1.43672 4.09089 1.82014 3.85489C2.2091 3.63826 3.17458 3.0216 4.11307 2.42778C4.50964 2.17655 4.55878 2.14955 4.86953 1.95161C4.91044 2.12069 5.01351 2.26816 5.15824 2.36467C5.30297 2.46118 5.47873 2.49965 5.65054 2.47243C5.82235 2.44521 5.9776 2.35428 6.0854 2.21776C6.1932 2.08123 6.24564 1.90912 6.23227 1.73568V0.69753C6.23305 0.598882 6.21272 0.501208 6.17266 0.411056C6.1326 0.320904 6.07373 0.240358 6 0.174818C5.92627 0.109277 5.83938 0.060257 5.74515 0.031043C5.65092 0.00182905 5.55154 -0.00690341 5.45366 0.00543105ZM10.9905 2.42778C10.8804 2.44608 10.7764 2.49072 10.6873 2.55789C10.6873 2.55789 7.20329 4.90203 6.59978 5.30414L6.57832 5.32629C6.07724 5.7021 5.78033 6.14919 5.64814 6.55822C5.57449 6.78907 5.53805 7.03017 5.54017 7.27247V7.4891C5.53918 7.51054 5.53918 7.53202 5.54017 7.55346V15.9237C5.54017 17.2387 7.05449 18 8.43868 18C9.06157 18 9.62356 17.8657 10.0388 17.5889C10.8693 17.1044 14.8835 13.9775 14.8835 13.9775C15.0911 13.8391 15.2296 13.6439 15.2296 13.4363V4.43902C15.2296 4.09297 15.0953 3.88534 14.8185 3.74692C14.6108 3.6085 14.2696 3.67356 14.062 3.81198C12.9546 4.64249 9.97376 6.98733 9.28166 7.40258C8.31272 7.95626 7.39984 8.09468 7.0538 7.74863C6.91538 7.61021 6.92437 7.4801 6.92437 7.27247C6.92806 7.15251 6.9426 7.05146 6.96797 6.96933C7.00673 6.84891 7.08563 6.7008 7.37839 6.4724C7.39223 6.46133 7.38531 6.46202 7.39984 6.45095C7.90023 6.11666 9.43046 5.07367 10.4285 4.39541C10.485 4.5471 10.5929 4.67417 10.7335 4.75451C10.874 4.83486 11.0383 4.8634 11.1977 4.83518C11.3571 4.80695 11.5015 4.72374 11.6059 4.60002C11.7103 4.4763 11.768 4.3199 11.7691 4.15802V3.11988C11.7698 3.02123 11.7495 2.92355 11.7095 2.8334C11.6694 2.74325 11.6105 2.6627 11.5368 2.59716C11.4631 2.53162 11.3762 2.4826 11.2819 2.45339C11.1877 2.42418 11.0883 2.41544 10.9905 2.42778ZM13.8454 7.4891V8.87329L10.3849 11.5545V10.1703L13.8454 7.4891Z" fill="#465746"/>
</svg>
