<svg width="24" height="24" viewBox="0 0 24 24" fill="none" xmlns="http://www.w3.org/2000/svg">
<path d="M17.7 9.70001C17.8822 9.5114 17.983 9.2588 17.9807 8.99661C17.9784 8.73441 17.8732 8.4836 17.6878 8.29819C17.5024 8.11278 17.2516 8.00761 16.9894 8.00533C16.7272 8.00305 16.4746 8.10385 16.286 8.28601L10.986 13.586L7.686 10.286C7.4974 10.1038 7.24479 10.0031 6.9826 10.0053C6.7204 10.0076 6.46959 10.1128 6.28418 10.2982C6.09877 10.4836 5.9936 10.7344 5.99133 10.9966C5.98905 11.2588 6.08984 11.5114 6.272 11.7L10.272 15.7C10.4595 15.8875 10.7138 15.9928 10.979 15.9928C11.2442 15.9928 11.4985 15.8875 11.686 15.7L17.686 9.70001H17.7Z" fill="#16A34A"/>
<path fill-rule="evenodd" clip-rule="evenodd" d="M24 12C24 18.62 18.62 24 12 24C5.38 24 0 18.62 0 12C0 5.38 5.38 0 12 0C18.62 0 24 5.38 24 12ZM22 12C22 17.52 17.52 22 12 22C6.48 22 2 17.52 2 12C2 6.48 6.48 2 12 2C17.52 2 22 6.48 22 12Z" fill="#16A34A"/>
</svg>
