<svg width="13" height="11" viewBox="0 0 13 11" fill="none" xmlns="http://www.w3.org/2000/svg">
<path d="M12 0H1C0.734784 0 0.48043 0.105357 0.292893 0.292893C0.105357 0.48043 0 0.734784 0 1V10C0 10.2652 0.105357 10.5196 0.292893 10.7071C0.48043 10.8946 0.734784 11 1 11H1.83687C1.9315 11 2.0242 10.9732 2.10419 10.9226C2.18418 10.8721 2.24818 10.7999 2.28875 10.7144C2.53189 10.201 2.91576 9.76729 3.39572 9.46355C3.87568 9.1598 4.432 8.99856 5 8.99856C5.568 8.99856 6.12432 9.1598 6.60428 9.46355C7.08424 9.76729 7.46811 10.201 7.71125 10.7144C7.75182 10.7999 7.81582 10.8721 7.89581 10.9226C7.9758 10.9732 8.0685 11 8.16313 11H12C12.2652 11 12.5196 10.8946 12.7071 10.7071C12.8946 10.5196 13 10.2652 13 10V1C13 0.734784 12.8946 0.48043 12.7071 0.292893C12.5196 0.105357 12.2652 0 12 0ZM5 8C4.60444 8 4.21776 7.8827 3.88886 7.66294C3.55996 7.44318 3.30362 7.13082 3.15224 6.76537C3.00087 6.39991 2.96126 5.99778 3.03843 5.60982C3.1156 5.22186 3.30608 4.86549 3.58579 4.58579C3.86549 4.30608 4.22186 4.1156 4.60982 4.03843C4.99778 3.96126 5.39991 4.00087 5.76537 4.15224C6.13082 4.30362 6.44318 4.55996 6.66294 4.88886C6.8827 5.21776 7 5.60444 7 6C7 6.53043 6.78929 7.03914 6.41421 7.41421C6.03914 7.78929 5.53043 8 5 8ZM12 10H8.46437C8.24634 9.62421 7.96853 9.28645 7.64188 9H10.5C10.6326 9 10.7598 8.94732 10.8536 8.85355C10.9473 8.75979 11 8.63261 11 8.5V2.5C11 2.36739 10.9473 2.24021 10.8536 2.14645C10.7598 2.05268 10.6326 2 10.5 2H2.5C2.36739 2 2.24021 2.05268 2.14645 2.14645C2.05268 2.24021 2 2.36739 2 2.5V8.5C1.99994 8.61089 2.03675 8.71865 2.10464 8.80634C2.17252 8.89402 2.26763 8.95665 2.375 8.98438C2.04074 9.27395 1.75707 9.61719 1.53562 10H1V1H12V10Z" fill="#343B34"/>
</svg>
