<svg width="38" height="38" viewBox="0 0 38 38" fill="none" xmlns="http://www.w3.org/2000/svg">
<path d="M33.25 4.75H4.75004C3.00837 4.75 1.58337 6.175 1.58337 7.91667V20.5833H4.75004V7.91667H33.25V33.25C34.9917 33.25 36.4167 31.825 36.4167 30.0833V7.91667C36.4167 6.175 34.9917 4.75 33.25 4.75Z" fill="#00A15D"/>
<path d="M14.25 22.1667C17.7478 22.1667 20.5833 19.3311 20.5833 15.8333C20.5833 12.3355 17.7478 9.5 14.25 9.5C10.7522 9.5 7.91663 12.3355 7.91663 15.8333C7.91663 19.3311 10.7522 22.1667 14.25 22.1667Z" fill="#00A15D"/>
<path d="M24.3675 26.22C21.7075 24.8583 18.2559 23.75 14.25 23.75C10.2442 23.75 6.79252 24.8583 4.13252 26.22C3.35995 26.6179 2.71275 27.2221 2.26276 27.9656C1.81278 28.709 1.57761 29.5627 1.58335 30.4317V34.8333H26.9167V30.4317C26.9167 28.6583 25.9509 27.0275 24.3675 26.22Z" fill="#00A15D"/>
</svg>
