<svg width="16" height="10" viewBox="0 0 16 10" fill="none" xmlns="http://www.w3.org/2000/svg">
<path fill-rule="evenodd" clip-rule="evenodd" d="M9.98771 7.98779C9.7225 7.98779 9.46814 8.09315 9.28061 8.28069C9.09307 8.46822 8.98771 8.72258 8.98771 8.98779C8.98771 9.25301 9.09307 9.50736 9.28061 9.6949C9.46814 9.88244 9.7225 9.98779 9.98771 9.98779H14.9877C15.2529 9.98779 15.5073 9.88244 15.6948 9.6949C15.8824 9.50736 15.9877 9.25301 15.9877 8.98779V3.98779C15.9877 3.72258 15.8824 3.46822 15.6948 3.28069C15.5073 3.09315 15.2529 2.98779 14.9877 2.98779C14.7225 2.98779 14.4681 3.09315 14.2806 3.28069C14.0931 3.46822 13.9877 3.72258 13.9877 3.98779V6.57379L9.69471 2.28079C9.50718 2.09332 9.25288 1.98801 8.98771 1.98801C8.72255 1.98801 8.46824 2.09332 8.28071 2.28079L5.98771 4.57379L1.69471 0.280793C1.50611 0.0986351 1.25351 -0.00215921 0.99131 0.000119209C0.729114 0.00239763 0.478301 0.107566 0.292893 0.292974C0.107485 0.478383 0.00231622 0.729195 3.78026e-05 0.991392C-0.00224062 1.25359 0.0985537 1.50619 0.280712 1.69479L5.28071 6.69479C5.46824 6.88226 5.72255 6.98758 5.98771 6.98758C6.25288 6.98758 6.50718 6.88226 6.69471 6.69479L8.98771 4.40179L12.5737 7.98779H9.98771Z" fill="white"/>
</svg>
