<svg width="18" height="18" viewBox="0 0 18 18" fill="none" xmlns="http://www.w3.org/2000/svg">
<path d="M17.3945 12.9797C16.4618 11.9635 15.1305 11.2356 13.62 10.9159L13.5729 10.9076L12.4846 12.3989C12.4839 12.5975 12.3864 12.7878 12.2134 12.9282C12.0405 13.0686 11.8061 13.1478 11.5615 13.1483C11.0538 13.1483 10.6385 12.8111 10.1538 11.8189V11.7949C10.1538 11.5465 10.0323 11.3082 9.81589 11.1325C9.59951 10.9569 9.30602 10.8582 9 10.8582C8.69398 10.8582 8.4005 10.9569 8.18411 11.1325C7.96772 11.3082 7.84616 11.5465 7.84616 11.7949V11.8196V11.8181C7.32923 12.8111 6.91016 13.1476 6.40339 13.1476C6.1588 13.147 5.92443 13.0679 5.75148 12.9274C5.57853 12.787 5.48104 12.5968 5.48031 12.3982L4.42615 10.9039C2.90515 11.218 1.56162 11.9439 0.617539 12.9617L0.604616 12.976C0.231372 13.4732 0.023074 14.0404 0 14.6224V14.6277C0.00461539 14.7401 0 14.8712 0 15.0024V16.5012C0 16.8987 0.194505 17.2799 0.540726 17.561C0.886947 17.8421 1.35652 18 1.84615 18H16.1538C16.6435 18 17.1131 17.8421 17.4593 17.561C17.8055 17.2799 18 16.8987 18 16.5012V15.0024C18 14.872 17.9954 14.7401 18 14.6277C17.9777 14.0388 17.7657 13.4649 17.3852 12.9632L17.3954 12.9782L17.3945 12.9797ZM4.15292 3.9831C4.15292 6.17137 5.83292 9.38632 8.99908 9.38632C12.1098 9.38632 13.8452 6.17137 13.8452 3.9831V3.93439C13.8452 3.41772 13.7199 2.9061 13.4763 2.42876C13.2328 1.95142 12.8758 1.5177 12.4258 1.15236C11.9758 0.787014 11.4416 0.497209 10.8536 0.299487C10.2657 0.101766 9.63548 0 8.99908 0C8.36267 0 7.7325 0.101766 7.14454 0.299487C6.55657 0.497209 6.02234 0.787014 5.57233 1.15236C5.12232 1.5177 4.76536 1.95142 4.52182 2.42876C4.27827 2.9061 4.15292 3.41772 4.15292 3.93439V3.98535V3.9831Z" fill="#465746"/>
</svg>
