<svg width="32" height="32" viewBox="0 0 32 32" fill="none" xmlns="http://www.w3.org/2000/svg">
<path fill-rule="evenodd" clip-rule="evenodd" d="M16.858 5.492C16.7692 5.34369 16.6435 5.22093 16.4931 5.13569C16.3427 5.05046 16.1728 5.00565 16 5.00565C15.8271 5.00565 15.6572 5.05046 15.5069 5.13569C15.3565 5.22093 15.2308 5.34369 15.142 5.492L3.15999 25.486C3.06905 25.6378 3.02 25.811 3.01786 25.9879C3.01571 26.1648 3.06054 26.3391 3.14778 26.493C3.23501 26.647 3.36153 26.775 3.51441 26.8641C3.66729 26.9531 3.84106 27 4.01799 27H27.986C28.1631 27.0004 28.3371 26.9537 28.4903 26.8648C28.6434 26.7759 28.7702 26.6479 28.8577 26.4939C28.9452 26.3399 28.9902 26.1655 28.9881 25.9884C28.9861 25.8113 28.937 25.6379 28.846 25.486L16.858 5.492ZM12.57 3.952C14.12 1.36 17.878 1.36 19.43 3.95L31.416 23.942C33.014 26.608 31.094 29.998 27.984 29.998H4.01599C0.905994 30 -1.01401 26.61 0.583994 23.944L12.57 3.952ZM18 23C18 23.5304 17.7893 24.0391 17.4142 24.4142C17.0391 24.7893 16.5304 25 16 25C15.4696 25 14.9609 24.7893 14.5858 24.4142C14.2107 24.0391 14 23.5304 14 23C14 22.4696 14.2107 21.9609 14.5858 21.5858C14.9609 21.2107 15.4696 21 16 21C16.5304 21 17.0391 21.2107 17.4142 21.5858C17.7893 21.9609 18 22.4696 18 23ZM17.5 11.5C17.5 11.1022 17.342 10.7206 17.0607 10.4393C16.7793 10.158 16.3978 10 16 10C15.6022 10 15.2206 10.158 14.9393 10.4393C14.658 10.7206 14.5 11.1022 14.5 11.5V17.5C14.5 17.8978 14.658 18.2794 14.9393 18.5607C15.2206 18.842 15.6022 19 16 19C16.3978 19 16.7793 18.842 17.0607 18.5607C17.342 18.2794 17.5 17.8978 17.5 17.5V11.5Z" fill="#CA8A04"/>
</svg>
