<svg width="24" height="24" viewBox="0 0 24 24" fill="none" xmlns="http://www.w3.org/2000/svg">
<path d="M22.5244 17.4469L14.3259 3.20906C14.0885 2.80295 13.7488 2.46609 13.3408 2.23199C12.9327 1.99789 12.4705 1.87471 12 1.87471C11.5296 1.87471 11.0673 1.99789 10.6593 2.23199C10.2512 2.46609 9.91154 2.80295 9.67407 3.20906L1.47564 17.4469C1.24522 17.841 1.12378 18.2893 1.12378 18.7458C1.12378 19.2023 1.24522 19.6506 1.47564 20.0447C1.71047 20.4528 2.04966 20.7911 2.4584 21.0249C2.86714 21.2587 3.33072 21.3795 3.80157 21.375H20.1984C20.669 21.3792 21.1322 21.2582 21.5406 21.0244C21.9489 20.7907 22.2878 20.4525 22.5225 20.0447C22.7532 19.6508 22.875 19.2025 22.8753 18.746C22.8756 18.2895 22.7545 17.8411 22.5244 17.4469ZM20.5744 18.9187C20.5363 18.9837 20.4813 19.0372 20.4153 19.0735C20.3493 19.1098 20.2747 19.1276 20.1994 19.125H3.80157C3.72628 19.1276 3.65169 19.1098 3.58568 19.0735C3.51968 19.0372 3.4647 18.9837 3.42657 18.9187C3.39423 18.8662 3.37711 18.8056 3.37711 18.7439C3.37711 18.6822 3.39423 18.6216 3.42657 18.5691L11.625 4.33125C11.6656 4.26876 11.7212 4.21741 11.7867 4.18186C11.8522 4.14631 11.9255 4.12768 12 4.12768C12.0745 4.12768 12.1479 4.14631 12.2134 4.18186C12.2788 4.21741 12.3344 4.26876 12.375 4.33125L20.5725 18.5691C20.6051 18.6215 20.6226 18.6819 20.6229 18.7436C20.6232 18.8054 20.6064 18.866 20.5744 18.9187ZM10.875 12.75V9.75C10.875 9.45163 10.9935 9.16548 11.2045 8.9545C11.4155 8.74353 11.7016 8.625 12 8.625C12.2984 8.625 12.5845 8.74353 12.7955 8.9545C13.0065 9.16548 13.125 9.45163 13.125 9.75V12.75C13.125 13.0484 13.0065 13.3345 12.7955 13.5455C12.5845 13.7565 12.2984 13.875 12 13.875C11.7016 13.875 11.4155 13.7565 11.2045 13.5455C10.9935 13.3345 10.875 13.0484 10.875 12.75ZM13.5 16.5C13.5 16.7967 13.412 17.0867 13.2472 17.3334C13.0824 17.58 12.8481 17.7723 12.574 17.8858C12.2999 17.9993 11.9983 18.0291 11.7074 17.9712C11.4164 17.9133 11.1491 17.7704 10.9394 17.5607C10.7296 17.3509 10.5867 17.0836 10.5288 16.7926C10.471 16.5017 10.5007 16.2001 10.6142 15.926C10.7277 15.6519 10.92 15.4176 11.1667 15.2528C11.4133 15.088 11.7033 15 12 15C12.3978 15 12.7794 15.158 13.0607 15.4393C13.342 15.7206 13.5 16.1022 13.5 16.5Z" fill="#DC2626"/>
</svg>
