<svg width="21" height="18" viewBox="0 0 21 18" fill="none" xmlns="http://www.w3.org/2000/svg">
<path d="M0.987894 18C0.804561 18 0.637894 17.9543 0.487894 17.863C0.337894 17.7717 0.221228 17.6507 0.137894 17.5C0.054561 17.3493 0.00889441 17.1867 0.000894411 17.012C-0.00710559 16.8373 0.038561 16.6667 0.137894 16.5L9.38789 0.5C9.48789 0.333333 9.61723 0.208333 9.77589 0.125C9.93456 0.0416667 10.0969 0 10.2629 0C10.4289 0 10.5916 0.0416667 10.7509 0.125C10.9102 0.208333 11.0392 0.333333 11.1379 0.5L20.3879 16.5C20.4879 16.6667 20.5339 16.8377 20.5259 17.013C20.5179 17.1883 20.4719 17.3507 20.3879 17.5C20.3039 17.6493 20.1872 17.7703 20.0379 17.863C19.8886 17.9557 19.7219 18.0013 19.5379 18H0.987894ZM10.2629 15C10.5462 15 10.7839 14.904 10.9759 14.712C11.1679 14.52 11.2636 14.2827 11.2629 14C11.2622 13.7173 11.1662 13.48 10.9749 13.288C10.7836 13.096 10.5462 13 10.2629 13C9.97956 13 9.74223 13.096 9.55089 13.288C9.35956 13.48 9.26356 13.7173 9.26289 14C9.26223 14.2827 9.35823 14.5203 9.55089 14.713C9.74356 14.9057 9.98089 15.0013 10.2629 15ZM10.2629 12C10.5462 12 10.7839 11.904 10.9759 11.712C11.1679 11.52 11.2636 11.2827 11.2629 11V8C11.2629 7.71667 11.1669 7.47933 10.9749 7.288C10.7829 7.09667 10.5456 7.00067 10.2629 7C9.98023 6.99933 9.74289 7.09533 9.55089 7.288C9.35889 7.48067 9.26289 7.718 9.26289 8V11C9.26289 11.2833 9.35889 11.521 9.55089 11.713C9.74289 11.905 9.98023 12.0007 10.2629 12Z" fill="white"/>
</svg>
